<?xml version="1.0" standalone="no"?><svg xmlns="http://www.w3.org/2000/svg" viewBox="0 0 1440 320"><path fill="#fff" fill-opacity="1" d="M0,0L30,48C60,96,120,192,180,224C240,256,300,224,360,186.7C420,149,480,107,540,85.3C600,64,660,64,720,101.3C780,139,840,213,900,224C960,235,1020,181,1080,165.3C1140,149,1200,171,1260,186.7C1320,203,1380,213,1410,218.7L1440,224L1440,320L1410,320C1380,320,1320,320,1260,320C1200,320,1140,320,1080,320C1020,320,960,320,900,320C840,320,780,320,720,320C660,320,600,320,540,320C480,320,420,320,360,320C300,320,240,320,180,320C120,320,60,320,30,320L0,320Z"></path></svg>